<?xml version="1.0" encoding="UTF-8"?>
<!DOCTYPE svg PUBLIC "-//W3C//DTD SVG 1.1//EN" "http://www.w3.org/Graphics/SVG/1.1/DTD/svg11.dtd">
<!-- Creator: CorelDRAW -->
<svg xmlns="http://www.w3.org/2000/svg" xml:space="preserve" width="210mm" height="297mm" version="1.1" style="shape-rendering:geometricPrecision; text-rendering:geometricPrecision; image-rendering:optimizeQuality; fill-rule:evenodd; clip-rule:evenodd"
viewBox="0 0 21000 29700"
 xmlns:xlink="http://www.w3.org/1999/xlink"
 xmlns:xodm="http://www.corel.com/coreldraw/odm/2003">
 <defs>
  <style type="text/css">
   <![CDATA[
    .str1 {stroke:#2B2A29;stroke-width:10;stroke-miterlimit:22.9256}
    .str2 {stroke:#2B2A29;stroke-width:7.62;stroke-miterlimit:22.9256}
    .str0 {stroke:#FFE2A2;stroke-width:7.62;stroke-miterlimit:22.9256}
    .fil2 {fill:none}
    .fil3 {fill:#2B2A29}
    .fil8 {fill:#817E85}
    .fil4 {fill:#9FA47C}
    .fil7 {fill:#B89474}
    .fil6 {fill:#C1788C}
    .fil5 {fill:#E2C4D0}
    .fil0 {fill:#FDE09F}
    .fil1 {fill:#FEFEFE}
    .fil9 {fill:#FEFFFF}
   ]]>
  </style>
 </defs>
 <g id="Слой_x0020_1">
  <metadata id="CorelCorpID_0Corel-Layer"/>
  <circle class="fil0 str0" cx="10492.93" cy="14857.07" r="1500"/>
  <path class="fil1 str1" d="M9611.36 15148.38l0.05 -3.46 1.16 0.02c7.43,-20.67 16.48,-40.4 27.4,-58.93 67.45,-123.39 150.41,-236.88 246.07,-339.86 6.18,-13.08 12.58,-26.18 19.23,-39.25l-0.58 -2.61 2.14 -0.47c25.11,-49.12 53.65,-97.81 86.18,-143.53 -0.2,-168.72 -10.32,-338.8 -23.19,-506.89 -12.32,-121.37 12.95,-237.26 66.87,-346.21l-0.69 -0.6 2.03 -2.39c17.24,-76.39 25.09,-157.43 11.64,-235.04l-2.32 -13.38 9.42 9.78c49.11,51 65.59,114.19 61.55,182.04 23.52,80.27 72.09,162.1 127.7,237.35l1.44 -0.4 1.06 3.74c41.78,56.18 87.38,108.59 129.25,153.88 123.12,156.51 280.28,275.6 457.52,364.84 88.31,26.45 171.39,71.09 247.01,123.15 55.67,-64.42 114.53,-125.01 168.12,-164.8 0.04,-0.06 0.08,-0.11 0.11,-0.17l2.41 -3.38 1.18 0.84c25.63,-18.66 50.03,-32.43 72.22,-39.42 55.78,-8.04 100.7,6.45 136.99,34.28l2.31 1.2 -0.22 0.42c73.24,57.71 110.87,170.02 131.66,259.07 46.67,199.91 15.52,402.75 -56.73,592.49 6.37,93.06 24.59,360.49 -16.49,443.34 -71.98,169.3 -225.5,482.95 -456.74,441.21 -175.14,61.42 -364.49,38.03 -537.51,-18.7 -125.26,-41.05 -242.25,-19.42 -349.82,55.84l-1.84 2.82 -1.25 -0.8c-96.63,60.35 -224.15,111.56 -325.19,31.56 -69.6,-41.87 -137.32,-86.59 -203,-134.35 -57.89,-6.84 -95.19,-84.9 -114.16,-131.62 -42.22,-84.34 -55.82,-176.18 17.2,-246.83 20.14,-22.8 40.49,-46.12 60.39,-69.93 -26.45,-129.69 -47.24,-301.03 -0.58,-434.85z"/>
  <path class="fil2 str2" d="M9616.38 15584.11c-45.66,-222.57 -36.43,-388.09 27.25,-496.12 66.32,-121.33 148.3,-234.49 245.91,-339.48 102.62,-217.94 230.07,-356.21 382.37,-414.83m-506.82 1028.8c-78.46,-61.51 -106.09,-130.98 -82.92,-208.44 17.4,-34.1 25.67,-57.96 24.78,-71.56 11.19,-59.71 35.06,-48.39 71.56,33.95 37.45,121.28 9.3,243.63 -84.42,367.04 -31.4,45.33 -77.89,102.84 -139.46,172.49 -61.9,59.89 -67.39,140.63 -16.51,242.25 33.31,82.05 70.63,125.19 111.94,129.38 65.08,47.37 132.98,92.32 203.71,134.88 79.86,63.22 187.52,52.21 322.98,-33.02 111.63,-78.45 229.69,-97.4 354.16,-56.86 202.76,66.74 381.38,72.86 535.87,18.35 164.87,30.53 315.97,-115.65 453.27,-438.6 27.14,-54.73 32.51,-202.17 16.09,-442.27m-1266.74 -686.39c22.04,-122.84 1.85,-264.15 -60.55,-423.91 -78.12,-209.14 -110.54,-351.04 -97.27,-425.77 11.43,-85.14 -7.85,-153.65 -57.8,-205.55 12.13,70.05 8.16,149.28 -11.92,237.68 -57.15,114.29 -79.78,229.91 -67.91,346.85 15.37,200.51 23.11,370.07 23.23,508.68m-379.23 1314.54c-26.82,-3.66 -23.14,21.12 11.01,74.31 -53.29,-32.11 -81.41,-73.71 -84.42,-124.77 -0.56,-24.27 16.26,-33.13 50.47,-26.62 131.98,17.11 191.02,38.83 177.07,65.14 -10.92,20.01 -62.31,23.97 -154.13,11.94zm11.01 74.31c50.12,-10.72 72.94,-33.26 68.47,-67.59m-123.32 20.84c3.53,-36.06 -5.43,-55.14 -26.85,-57.25m746.93 -452.95c-39.61,-8.54 -72.96,15.93 -100.02,73.42 -41.7,76.88 -42.63,129.47 -2.74,157.81 20.48,2.63 37.92,15.17 52.3,37.62 42,49.95 98.28,57.29 168.83,22.02 40.28,-24.48 69.03,-63.93 86.25,-118.36 8.19,-30.53 -10.16,-61.43 -55.05,-92.68 -46.09,-38.43 -95.94,-65.03 -149.57,-79.83zm86.25 107.37c-14.01,97.07 -36.02,129.78 -66.06,98.18 -52.65,-58.28 -42.56,-108.43 30.27,-150.48 28.97,-11.43 40.91,5.99 35.79,52.3zm-597.87 -370.43c-27.22,15.69 -39.27,41.14 -36.16,76.35 -2.38,30.89 11.36,58.33 41.24,82.29m1097.01 -497.48c201.72,-280.17 349.16,-434.95 442.28,-464.31 126.46,-18.24 215.16,79.02 266.09,291.8 41.89,184.76 22.92,381.73 -56.89,590.92 -37.68,0.75 -52.66,-49.4 -44.96,-150.44 -114.38,-52.54 -210.83,-42.71 -289.34,29.44m-1089.02 -1323.14c-20.06,-71.67 -43.71,-91.6 -70.96,-59.8m1041.28 829.68c-126.23,-87.53 -248.05,-136.83 -365.47,-147.9m116.05 22.98c-188.91,-95.05 -341.99,-217.09 -459.23,-366.15 -140.94,-152.39 -227.72,-284.6 -260.34,-396.61m62.6 2481.32c-82.97,-54.24 -109.73,-92.14 -80.3,-113.73 83.45,-26.1 99.36,-63.42 47.72,-111.96 -88.31,-55.27 -158.06,-128.69 -209.21,-220.2 -26.76,-32.77 -19.13,-95.47 22.94,-188.11 23.23,-63.21 41.89,-145.49 55.98,-246.82 -42.97,-34.39 -38.98,-111.47 11.92,-231.23 50.54,-54.82 110.79,-124.85 180.77,-210.12 59.31,-82.96 170.34,-154.54 333.09,-214.71 -37.41,51.1 -81.15,87.8 -131.22,110.1 -79.24,59.9 -87.2,109.14 -23.86,147.73 102.45,-12.79 170.96,-43.07 205.54,-90.84 51.2,-127.23 81.78,-136.41 91.76,-27.52 118.02,-11.47 196.77,-6.92 236.26,13.6m-904.26 502.99c98.16,-19.73 183.5,-24.94 256.01,-15.58 67.1,-44.37 119.4,-62.41 156.9,-54.12 26.71,51.11 29.17,97.3 7.34,138.55 -21.81,25.51 23.16,58.53 134.9,99.09 115.05,48.08 258.5,182.65 430.33,403.72 36.36,93.12 106.41,124.01 210.12,92.68 89.24,-35.88 156.54,-94.3 201.87,-175.25 -132.07,-21.68 -264.51,-101.2 -397.31,-238.57 -93.54,-47.9 -141.87,-119.77 -144.98,-215.64 29.89,-46.6 -6.21,-72.29 -108.27,-77.08 -78.44,-50.55 -64.37,-148.44 42.2,-293.62 38.9,-67.1 77.44,-82.4 115.62,-45.88 9.97,-34.18 9.81,-74.62 -0.47,-121.29m95.9 753.51c82.15,-39.07 172.69,-58.33 271.59,-57.8 37.27,-123.03 25.03,-181.14 -36.7,-174.35 61.13,-93.54 6.68,-171.85 -163.33,-234.91 -119.68,6.95 -175.35,-48.1 -166.99,-165.16m166.99 165.16c20.01,-60.22 5.95,-146.48 -42.2,-258.75 41.47,-27.39 78.17,-12.1 107.26,40.98 3.75,-86.07 28.27,-128.09 70.75,-130.91 44.32,-50.26 41.88,-91.86 -7.34,-124.77 -31.97,-44.59 -18.68,-108.25 39.87,-191.04m206.07 -7.12c-24.03,45.82 -43.92,89.86 -59.67,132.07 -58.24,0.57 -57.62,31.15 1.84,91.76 44.54,62.24 28.03,147.27 -49.56,255.1 -78.29,93.99 -109.44,163.84 -93.4,209.59m-1024.49 -876.58c-60.33,-17.22 -108.24,-19.38 -143.76,-6.51 31.61,83.03 48.99,163.31 52.14,240.83m124.96 -98.8c28.87,-119.19 21.02,-258.62 -23.5,-418.27m-453.46 1282.54c46.78,-72.82 82.52,-106.66 107.2,-101.57 17.01,60.28 59.5,42.53 127.49,-53.24m-116.14 -309.96c33.13,148.99 132.11,152.9 296.97,11.76 65.22,-58.4 144.14,-104.27 236.73,-137.62 -10.27,-37.85 -4.77,-74.26 16.51,-109.2 -58.87,36.83 -120.24,37.96 -184.1,3.37m363.03 140.69c-50.26,-2.1 -64.62,-25.34 -43.12,-69.75 60.87,-16.03 122.95,-29.49 186.27,-40.37 29.03,0.27 12.21,16.49 -50.48,48.62 -42.06,7.74 -72.95,28.24 -92.67,61.5zm-1023.29 532.7c38.95,0.57 58.54,19.66 58.72,57.29m8.36 49.88c-21.43,31.55 -14.96,64.48 19.37,98.76 15.2,13.31 15.07,52.74 -0.35,118.3m221.08 581.84l2.29 5.06m-22.48 -159.66l8.72 6.41m-70.2 50.01l7.8 0.45m30.29 -5.95l8.7 5.5m-127.54 41.31l13.76 3.66m44.97 11.92l7.81 0.45m37.61 10.11l6.88 4.59m111.5 52.3l22.94 7.79m35.77 -67.89l9.65 2.3m-152.34 105.51l17.9 5.97m-85.8 -52.3l8.27 1.84m-72.5 -38.54l5.5 2.28m493.02 -815.86c33.73,35.77 88.73,70.83 164.95,105.22"/>
  <path class="fil3 str2" d="M10314.38 15599.11c30.04,31.6 52.05,-1.11 66.06,-98.18 5.12,-46.31 -6.82,-63.73 -35.79,-52.3 -72.83,42.05 -82.92,92.2 -30.27,150.48z"/>
  <path class="fil4 str2" d="M9787.65 15289.14c7.84,-39.09 8.99,-78.07 3.46,-116.93 -2.01,-13.91 -4.85,-27.82 -8.54,-41.71 -27.22,15.69 -39.27,41.14 -36.16,76.35 -2.38,30.89 11.36,58.33 41.24,82.29z"/>
  <path class="fil4 str2" d="M10194.17 15466.98c-41.7,76.88 -42.63,129.47 -2.74,157.81 20.48,2.63 37.92,15.17 52.3,37.62 42,49.95 98.28,57.29 168.83,22.02 40.28,-24.48 69.03,-63.93 86.25,-118.36 8.19,-30.53 -10.16,-61.43 -55.05,-92.68 -46.09,-38.43 -95.94,-65.03 -149.57,-79.83 -39.61,-8.54 -72.96,15.93 -100.02,73.42zm120.21 132.13c-52.65,-58.28 -42.56,-108.43 30.27,-150.48 28.97,-11.43 40.91,5.99 35.79,52.3 -14.01,97.07 -36.02,129.78 -66.06,98.18z"/>
  <path class="fil4 str2" d="M9765.09 15362.48c10.14,-24.48 17.66,-48.93 22.56,-73.34 -29.88,-23.96 -43.62,-51.4 -41.24,-82.29 -3.11,-35.21 8.94,-60.66 36.16,-76.35 -1.26,-4.7 -2.6,-9.37 -4.06,-14.07 -36.5,-82.34 -60.37,-93.66 -71.56,-33.95 0.89,13.6 -7.38,37.46 -24.78,71.56 -5.35,17.89 -7.99,35.35 -7.94,52.39 0.08,17.04 2.86,33.68 8.36,49.88 12.8,37.69 40.3,73.08 82.5,106.17z"/>
  <path class="fil3 str2" d="M9746.41 15206.85c-2.38,30.89 11.36,58.33 41.24,82.29 7.84,-39.09 8.99,-78.07 3.46,-116.93 -2.01,-13.91 -4.85,-27.82 -8.54,-41.71 -27.22,15.69 -39.27,41.14 -36.16,76.35z"/>
  <path class="fil3 str2" d="M10013.88 15248.63c-14.09,101.33 -32.75,183.61 -55.98,246.82 -42.07,92.64 -49.7,155.34 -22.94,188.11 51.15,91.51 120.9,164.93 209.21,220.2 51.64,48.54 35.73,85.86 -47.72,111.96 -29.43,21.59 -2.67,59.49 80.3,113.73 111.63,-78.45 229.69,-97.4 354.16,-56.86 202.76,66.74 381.38,72.86 535.87,18.35 164.87,30.53 315.97,-115.65 453.27,-438.6 27.14,-54.73 32.51,-202.17 16.09,-442.27 -37.68,0.75 -52.66,-49.4 -44.96,-150.44 -87.91,-40.38 -165.23,-43.93 -231.96,-10.63 -20.08,10.01 -39.22,23.37 -57.38,40.07 75.29,51.44 90.98,110.75 47.09,177.93 61.73,-6.79 73.97,51.32 36.7,174.35 -98.9,-0.53 -189.44,18.73 -271.59,57.8 132.8,137.37 265.24,216.89 397.31,238.57 -45.33,80.95 -112.63,139.37 -201.87,175.25 -103.71,31.33 -173.76,0.44 -210.12,-92.68 -171.83,-221.07 -315.28,-355.64 -430.33,-403.72 -84.24,-30.57 -130.53,-56.87 -138.87,-78.88 -76.22,-34.39 -131.22,-69.45 -164.95,-105.22 -71.49,-8.54 -155.27,-3.15 -251.33,16.16zm229.85 413.78c-14.38,-22.45 -31.82,-34.99 -52.3,-37.62 -39.89,-28.34 -38.96,-80.93 2.74,-157.81 27.06,-57.49 60.41,-81.96 100.02,-73.42 53.63,14.8 103.48,41.4 149.57,79.83 44.89,31.25 63.24,62.15 55.05,92.68 -17.22,54.43 -45.97,93.88 -86.25,118.36 -70.55,35.27 -126.83,27.93 -168.83,-22.02z"/>
  <path class="fil5 str2" d="M9772.08 15864.26c13.95,-26.31 -45.09,-48.03 -177.07,-65.14 -34.21,-6.51 -51.03,2.35 -50.47,26.62 0.4,7.1 1.31,14.03 2.72,20.77 21.42,2.11 30.38,21.19 26.85,57.25 13.62,17.35 31.89,32.92 54.85,46.75 -34.15,-53.19 -37.83,-77.97 -11.01,-74.31 31.14,4.08 57.65,6.32 79.48,6.72 42.56,0.76 67.44,-5.44 74.65,-18.66z"/>
  <path class="fil6 str2" d="M9697.43 15882.92c-21.83,-0.4 -48.34,-2.64 -79.48,-6.72 -26.82,-3.66 -23.14,21.12 11.01,74.31 50.12,-10.72 72.94,-33.26 68.47,-67.59z"/>
  <path class="fil6 str2" d="M9574.11 15903.76c3.53,-36.06 -5.43,-55.14 -26.85,-57.25 4.29,20.84 13.25,39.92 26.85,57.25z"/>
  <path class="fil3 str2" d="M9791.11 15172.21c46.78,-72.82 82.52,-106.66 107.2,-101.57 17.01,60.28 59.5,42.53 127.49,-53.24 50.54,-54.82 110.79,-124.85 180.77,-210.12 59.31,-82.96 170.34,-154.54 333.09,-214.71 -37.41,51.1 -81.15,87.8 -131.22,110.1 -79.24,59.9 -87.2,109.14 -23.86,147.73 102.45,-12.79 170.96,-43.07 205.54,-90.84 51.2,-127.23 81.78,-136.41 91.76,-27.52 118.02,-11.47 196.77,-6.92 236.26,13.6 60.12,-81.8 115.12,-151.74 165,-209.83 -85.14,-59.04 -168.28,-100.67 -249.42,-124.92 -188.91,-95.05 -341.99,-217.09 -459.23,-366.15 -50.17,-54.25 -93.48,-105.94 -129.92,-155.07 44.52,159.65 52.37,299.08 23.5,418.27 1.44,8.65 2.71,17.22 3.84,25.74 6.55,49.66 7.84,97.01 3.86,142.07 63.86,34.59 125.23,33.46 184.1,-3.37 -21.28,34.94 -26.78,71.35 -16.51,109.2 -92.59,33.35 -171.51,79.22 -236.73,137.62 -164.86,141.14 -263.84,137.23 -296.97,-11.76 -6.81,13.36 -13.51,27.05 -20.12,41.07 -97.61,104.99 -179.59,218.15 -245.91,339.48 -11.01,18.68 -20.39,39.07 -28.12,61.15 38.95,0.57 58.54,19.66 58.72,57.29 -0.05,-17.04 2.59,-34.5 7.94,-52.39 17.4,-34.1 25.67,-57.96 24.78,-71.56 11.19,-59.71 35.06,-48.39 71.56,33.95 1.46,4.7 2.8,9.37 4.06,14.07 3.69,13.89 6.53,27.8 8.54,41.71zm847.69 -555.77c-50.26,-2.1 -64.62,-25.34 -43.12,-69.75 60.87,-16.03 122.95,-29.49 186.27,-40.37 29.03,0.27 12.21,16.49 -50.48,48.62 -42.06,7.74 -72.95,28.24 -92.67,61.5z"/>
  <path class="fil7 str2" d="M9909.66 14707.44c33.13,148.99 132.11,152.9 296.97,11.76 65.22,-58.4 144.14,-104.27 236.73,-137.62 -10.27,-37.85 -4.77,-74.26 16.51,-109.2 -58.87,36.83 -120.24,37.96 -184.1,3.37 3.98,-45.06 2.69,-92.41 -3.86,-142.07 -45.11,17.37 -88.04,41.71 -128.8,73.06 -52.21,40.16 -100.87,91.8 -145.93,154.92 -30.85,43.22 -60.04,91.81 -87.52,145.78z"/>
  <path class="fil7 str2" d="M10206.57 14807.28c-69.98,85.27 -130.23,155.3 -180.77,210.12 -50.9,119.76 -54.89,196.84 -11.92,231.23 96.06,-19.31 179.84,-24.7 251.33,-16.16 1.56,0.2 3.13,0.38 4.68,0.58 67.1,-44.37 119.4,-62.41 156.9,-54.12 26.71,51.11 29.17,97.3 7.34,138.55 -5.37,6.28 -6.68,13.02 -3.97,20.21 8.34,22.01 54.63,48.31 138.87,78.88 115.05,48.08 258.5,182.65 430.33,403.72 36.36,93.12 106.41,124.01 210.12,92.68 89.24,-35.88 156.54,-94.3 201.87,-175.25 -132.07,-21.68 -264.51,-101.2 -397.31,-238.57 -93.54,-47.9 -141.87,-119.77 -144.98,-215.64 29.89,-46.6 -6.21,-72.29 -108.27,-77.08 -78.44,-50.55 -64.37,-148.44 42.2,-293.62 38.9,-67.1 77.44,-82.4 115.62,-45.88 9.97,-34.18 9.81,-74.62 -0.47,-121.29 -39.49,-20.52 -118.24,-25.07 -236.26,-13.6 -9.98,-108.89 -40.56,-99.71 -91.76,27.52 -34.58,47.77 -103.09,78.05 -205.54,90.84 -63.34,-38.59 -55.38,-87.83 23.86,-147.73 50.07,-22.3 93.81,-59 131.22,-110.1 -162.75,60.17 -273.78,131.75 -333.09,214.71z"/>
  <path class="fil7 str2" d="M10112.82 13765.93c10.79,80.08 42.82,191.37 96.03,333.84 9.63,24.65 18.26,48.88 25.88,72.65 15.02,46.88 26.13,92.05 33.34,135.52 28.87,-119.19 21.02,-258.62 -23.5,-418.27 -65.94,-88.89 -109.41,-169.39 -130.42,-241.54 -0.55,8.45 -1.39,17.08 -2.57,25.87 -4.22,23.81 -3.82,54.47 1.24,91.93z"/>
  <path class="fil7 str2" d="M10112.82 13765.93c-5.06,-37.46 -5.46,-68.12 -1.24,-91.93 1.18,-8.79 2.02,-17.42 2.57,-25.87 4.55,-73.26 -15.59,-133.15 -60.37,-179.68 12.13,70.05 8.16,149.28 -11.92,237.68 27.25,-31.8 50.9,-11.87 70.96,59.8z"/>
  <path class="fil7 str2" d="M10781.95 14506.32c-63.32,10.88 -125.4,24.34 -186.27,40.37 -21.5,44.41 -7.14,67.65 43.12,69.75 19.72,-33.26 50.61,-53.76 92.67,-61.5 62.69,-32.13 79.51,-48.35 50.48,-48.62z"/>
  <path class="fil8 str2" d="M11150.66 14814.32c-29.09,-53.08 -65.79,-68.37 -107.26,-40.98 48.15,112.27 62.21,198.53 42.2,258.75 47.93,17.78 86.69,36.77 116.24,56.98 18.16,-16.7 37.3,-30.06 57.38,-40.07 -16.04,-45.75 15.11,-115.6 93.4,-209.59 77.59,-107.83 94.1,-192.86 49.56,-255.1 -59.46,-60.61 -60.08,-91.19 -1.84,-91.76 15.75,-42.21 35.64,-86.25 59.67,-132.07 -38.37,-29.37 -82.74,-40.4 -133.07,-33.13 -21.45,6.77 -45.79,20.19 -73,40.25 -58.55,82.79 -71.84,146.45 -39.87,191.04 49.22,32.91 51.66,74.51 7.34,124.77 -42.48,2.82 -67,44.84 -70.75,130.91z"/>
  <path class="fil8 str2" d="M11043.4 14773.34c41.47,-27.39 78.17,-12.1 107.26,40.98 3.75,-86.07 28.27,-128.09 70.75,-130.91 44.32,-50.26 41.88,-91.86 -7.34,-124.77 -31.97,-44.59 -18.68,-108.25 39.87,-191.04 -47.99,35.39 -104.92,91.46 -170.8,168.21 -49.88,58.09 -104.88,128.03 -165,209.83 10.28,46.67 10.44,87.11 0.47,121.29 -8.36,117.06 47.31,172.11 166.99,165.16 20.01,-60.22 5.95,-146.48 -42.2,-258.75z"/>
  <path class="fil8 str2" d="M11085.6 15032.09c-119.68,6.95 -175.35,-48.1 -166.99,-165.16 -38.18,-36.52 -76.72,-21.22 -115.62,45.88 -106.57,145.18 -120.64,243.07 -42.2,293.62 102.06,4.79 138.16,30.48 108.27,77.08 3.11,95.87 51.44,167.74 144.98,215.64 82.15,-39.07 172.69,-58.33 271.59,-57.8 37.27,-123.03 25.03,-181.14 -36.7,-174.35 43.89,-67.18 28.2,-126.49 -47.09,-177.93 -29.55,-20.21 -68.31,-39.2 -116.24,-56.98z"/>
  <path class="fil8 str2" d="M10434.13 15317.48c21.83,-41.25 19.37,-87.44 -7.34,-138.55 -37.5,-8.29 -89.8,9.75 -156.9,54.12 -1.55,-0.2 -3.12,-0.38 -4.68,-0.58 33.73,35.77 88.73,70.83 164.95,105.22 -2.71,-7.19 -1.4,-13.93 3.97,-20.21z"/>
  <path class="fil8 str2" d="M10143.11 14406.74c40.76,-31.35 83.69,-55.69 128.8,-73.06 -1.13,-8.52 -2.4,-17.09 -3.84,-25.74 -7.21,-43.47 -18.32,-88.64 -33.34,-135.52 -60.33,-17.22 -108.24,-19.38 -143.76,-6.51 31.61,83.03 48.99,163.31 52.14,240.83z"/>
  <path class="fil9 str2" d="M11221.41 14683.41c-42.48,2.82 -67,44.84 -70.75,130.91 -29.09,-53.08 -65.79,-68.37 -107.26,-40.98 48.15,112.27 62.21,198.53 42.2,258.75 47.93,17.78 86.69,36.77 116.24,56.98 18.16,-16.7 37.3,-30.06 57.38,-40.07 -16.04,-45.75 15.11,-115.6 93.4,-209.59 77.59,-107.83 94.1,-192.86 49.56,-255.1 -59.46,-60.61 -60.08,-91.19 -1.84,-91.76 15.75,-42.21 35.64,-86.25 59.67,-132.07 -38.37,-29.37 -82.74,-40.4 -133.07,-33.13 -21.45,6.77 -45.79,20.19 -73,40.25 -58.55,82.79 -71.84,146.45 -39.87,191.04 49.22,32.91 51.66,74.51 7.34,124.77z"/>
  <path class="fil5 str2" d="M10569.86 14584.31c44.55,62.24 28.04,147.27 -49.55,255.1 -78.3,93.99 -109.45,163.84 -93.41,209.59 66.74,-33.3 144.06,-29.75 231.97,10.63 -7.71,101.04 7.28,151.19 44.94,150.44 79.83,-209.19 98.8,-406.16 56.89,-590.92 -30.64,-128.09 -74.98,-214.31 -133,-258.67 -24.05,45.82 -43.93,89.86 -59.68,132.07 -58.23,0.57 -57.61,31.15 1.84,91.76z"/>
  <path class="fil8 str2" d="M9765.09 15362.48c-42.2,-33.09 -69.7,-68.48 -82.5,-106.17 -21.43,31.55 -14.96,64.48 19.37,98.76 15.2,13.31 15.07,52.74 -0.35,118.3 27.09,-37.05 48.25,-74.02 63.48,-110.89z"/>
 </g>
</svg>
